<svg width="1171" height="487" viewBox="0 0 1171 487" fill="none" xmlns="http://www.w3.org/2000/svg">
<g id="background">
<g clip-path="url(#clip0)">
<path id="Vector" d="M83.9392 422.714L57.0896 420.922L66.0395 461.223L96.4688 448.685L83.9392 422.714Z" fill="#FFB9B9"/>
<path id="Vector_2" d="M330.062 347.486L267.413 286.587L231.613 314.351L160.908 399.429L168.963 411.967L254.882 353.755L313.057 429.878L368.547 402.116L330.062 347.486Z" fill="#2F2E41"/>
<path id="Vector_3" opacity="0.1" d="M330.062 347.486L267.413 286.587L231.613 314.351L160.908 399.429L168.963 411.967L254.882 353.755L313.057 429.878L368.547 402.116L330.062 347.486Z" fill="black"/>
<path id="Vector_4" d="M335.432 387.787L327.377 394.056L262.043 371.667L246.828 365.398L216.398 371.667C216.398 371.667 216.398 346.591 245.038 347.486L274.573 354.651L309.478 357.337L335.432 387.787Z" fill="#FFB9B9"/>
<path id="Vector_5" d="M393.607 454.059L373.917 466.597H350.647L242.353 426.296L83.9392 454.954L79.4637 420.922L224.453 357.338L351.543 399.429L393.607 454.059Z" fill="#2F2E41"/>
<path id="Vector_6" d="M266.518 294.648L253.093 297.335L250.167 293.919C247.851 291.216 246.384 287.888 245.949 284.354C245.514 280.819 246.131 277.235 247.723 274.05V274.05L285.313 224.794C285.313 224.794 296.053 200.614 313.057 210.465C330.062 220.316 298.738 236.436 298.738 236.436L279.943 265.99L281.733 281.214L266.518 294.648Z" fill="#FFB9B9"/>
<path id="Vector_7" d="M351.542 236.436C370.82 236.436 386.447 220.799 386.447 201.509C386.447 182.219 370.82 166.582 351.542 166.582C332.265 166.582 316.637 182.219 316.637 201.509C316.637 220.799 332.265 236.436 351.542 236.436Z" fill="#FFB9B9"/>
<path id="Vector_8" d="M335.88 227.033L351.99 265.542L390.474 249.422C390.474 249.422 377.944 218.973 377.944 218.077C377.944 217.181 335.88 227.033 335.88 227.033Z" fill="#FFB9B9"/>
<path id="Vector_9" d="M441.856 340.958C441.856 362.037 438.536 382.984 432.02 403.029L429.407 411.071L416.877 468.388L403.452 471.97L393.607 459.432L373.917 445.103L359.597 421.818L347.318 401.346L343.487 394.951L330.062 327.784L279.048 299.126L262.043 296.439L265.623 286.588L280.838 265.99L296.053 264.199L300.527 260.616L304.107 262.408L318.427 254.347L322.902 256.139L349.072 258.574L364.967 255.243L387.825 242.965L397.187 244.496L429.407 271.363C437.643 293.64 441.859 317.205 441.856 340.958V340.958Z" fill="#1A8375"/>
<path id="Vector_10" d="M65.3311 436.581C65.3311 436.581 73.3473 422.986 69.9615 421.399C66.5756 419.812 52.1963 413.485 52.1963 413.485L31.1094 406.492C31.1094 406.492 0.682259 361.242 0.0143778 400.592C-0.653503 439.942 22.1691 449.401 22.1691 449.401C22.1691 449.401 42.524 493.235 54.0542 486.245C65.5844 479.255 77.1222 455.528 77.1222 455.528C77.1222 455.528 56.3296 444.343 65.3311 436.581Z" fill="#2F2E41"/>
<path id="Vector_11" opacity="0.1" d="M432.091 333.157L398.081 355.546L347.318 401.345L343.487 394.951L332.747 341.217H335.432L363.178 290.171L432.091 333.157Z" fill="black"/>
<path id="Vector_12" d="M363.178 284.797L335.432 335.844H325.588L319.323 353.755L305.003 357.338L343.487 399.429L398.081 350.173L432.091 327.783L363.178 284.797Z" fill="#1A8375"/>
<path id="Vector_13" d="M324.393 175.539L320.612 176.995C320.03 176.601 319.533 176.095 319.149 175.506C318.765 174.917 318.503 174.258 318.377 173.566C318.252 172.874 318.265 172.165 318.417 171.478C318.569 170.792 318.856 170.143 319.262 169.569L312.273 169.242C316.759 163.263 322.463 158.306 329.008 154.698C335.552 151.09 342.787 148.913 350.235 148.312C357.683 147.712 365.173 148.7 372.21 151.213C379.247 153.726 385.671 157.705 391.057 162.888C391.375 161.791 394.843 163.925 396.26 166.088C396.735 164.304 399.988 172.929 401.138 179.027C401.67 176.996 403.718 180.274 401.924 183.419C403.061 183.252 403.574 186.162 402.694 187.784C403.938 187.199 403.728 190.673 402.38 192.994C404.154 192.836 388.386 217.324 382.002 231.635C380.148 223.112 378.064 214.137 372.086 207.788C371.07 206.709 369.958 205.726 368.847 204.745L362.839 199.438C355.852 193.268 349.497 185.652 340.19 183.345C333.794 181.76 329.75 181.403 333.236 174.191C330.087 175.506 327.146 177.461 323.968 178.683C324.011 177.675 324.455 176.547 324.393 175.539Z" fill="#2F2E41"/>
<path id="Vector_14" d="M368.995 211.808C372.455 211.808 375.259 209.001 375.259 205.539C375.259 202.077 372.455 199.27 368.995 199.27C365.534 199.27 362.73 202.077 362.73 205.539C362.73 209.001 365.534 211.808 368.995 211.808Z" fill="#FFB9B9"/>
<g id="clip">
<path id="clip-0-2" d="M223.329 64.6367H193.038V94.9469H223.329V64.6367Z" fill="#00DBBF"/>
<path id="clip-0-1" d="M241.72 77.6268H204.938V40.8215H241.72V77.6268ZM206.537 76.0266H240.121V42.4218H206.537V76.0266Z" fill="#3F3D56"/>
</g>
<g id="clip-1">
<path id="clip-1-2" d="M87.9883 187.463L79.6711 158.318L50.5445 166.641L58.8617 195.786L87.9883 187.463Z" fill="#00DBBF"/>
<path id="clip-1-1" d="M80.5552 208.725L70.4557 173.335L105.824 163.229L115.923 198.62L80.5552 208.725ZM72.4326 174.434L81.6538 206.747L113.946 197.52L104.725 165.207L72.4326 174.434Z" fill="#3F3D56"/>
</g>
<g id="clip-2">
<path id="clip-2-2" d="M80.4605 51.7188L101.143 29.574L79.0124 8.8782L58.3299 31.023L80.4605 51.7188Z" fill="#00DBBF"/>
<path id="clip-2-1" d="M58.4187 56.2943L83.5332 29.4042L110.406 54.5348L85.2916 81.4249L58.4187 56.2943ZM83.6097 31.666L60.679 56.2178L85.2152 79.1631L108.146 54.6113L83.6097 31.666Z" fill="#3F3D56"/>
</g>
<path id="Vector_15" d="M1110.19 5.80476H828.738V7.62939e-06H701.115V5.80476H418.5C415.999 5.80476 413.524 6.29751 411.214 7.25489C408.904 8.21227 406.805 9.61552 405.038 11.3845C403.27 13.1535 401.867 15.2536 400.911 17.565C399.954 19.8763 399.461 22.3535 399.461 24.8553V410.501C399.461 413.003 399.954 415.48 400.911 417.791C401.867 420.103 403.27 422.203 405.038 423.972C406.805 425.741 408.904 427.144 411.214 428.102C413.524 429.059 415.999 429.552 418.5 429.552H1110.19C1115.24 429.552 1120.09 427.545 1123.66 423.972C1127.23 420.399 1129.23 415.554 1129.23 410.501V24.8553C1129.23 22.3535 1128.74 19.8763 1127.78 17.565C1126.83 15.2536 1125.42 13.1535 1123.66 11.3845C1121.89 9.61552 1119.79 8.21227 1117.48 7.25489C1115.17 6.29751 1112.69 5.80476 1110.19 5.80476V5.80476Z" fill="#3F3D56"/>
<path id="Vector_16" d="M1103.71 39.4723H424.986V422.586H1103.71V39.4723Z" fill="#00DBBF"/>
<path id="Vector_17" d="M763.767 29.0238C767.611 29.0238 770.728 25.9051 770.728 22.0581C770.728 18.211 767.611 15.0924 763.767 15.0924C759.922 15.0924 756.806 18.211 756.806 22.0581C756.806 25.9051 759.922 29.0238 763.767 29.0238Z" fill="#00DBBF"/>
<path id="Vector_18" opacity="0.1" d="M909.605 422.586H424.986V39.4726L909.605 422.586Z" fill="black"/>
<g id="circle">
<path id="circle-2" d="M531.186 393.917C567.217 393.917 596.426 364.689 596.426 328.635C596.426 292.58 567.217 263.352 531.186 263.352C495.154 263.352 465.945 292.58 465.945 328.635C465.945 364.689 495.154 393.917 531.186 393.917Z" fill="#F2F2F2"/>
<path id="circle-1" d="M545.709 377.701C529.658 377.701 513.968 372.939 500.623 364.016C487.277 355.093 476.875 342.41 470.733 327.572C464.591 312.733 462.984 296.406 466.115 280.654C469.246 264.901 476.975 250.432 488.325 239.075C499.674 227.718 514.134 219.984 529.877 216.851C545.619 213.718 561.936 215.326 576.765 221.472C591.594 227.618 604.268 238.027 613.185 251.381C622.103 264.735 626.862 280.435 626.862 296.496C626.838 318.025 618.28 338.666 603.066 353.89C587.852 369.113 567.225 377.677 545.709 377.701ZM545.709 216.352C529.868 216.352 514.383 221.053 501.212 229.859C488.041 238.665 477.775 251.182 471.713 265.826C465.651 280.471 464.065 296.585 467.155 312.131C470.246 327.678 477.874 341.958 489.075 353.166C500.276 364.374 514.547 372.007 530.084 375.1C545.62 378.192 561.724 376.605 576.359 370.539C590.994 364.473 603.503 354.201 612.303 341.021C621.104 327.842 625.801 312.347 625.801 296.496C625.777 275.248 617.331 254.877 602.316 239.852C587.301 224.828 566.943 216.376 545.709 216.352V216.352Z" fill="#3F3D56"/>
</g>
<path id="Vector_19" d="M985.531 246.089H922.131V259.345H985.531V246.089Z" fill="#3F3D56"/>
<g id="bar">
<path id="bar-5" d="M1062.18 142.879H845.483V148.561H1062.18V142.879Z" fill="#3F3D56"/>
<path id="bar4" d="M1062.18 160.87H845.483V166.551H1062.18V160.87Z" fill="#3F3D56"/>
<path id="bar-3" d="M1062.18 178.86H845.483V184.542H1062.18V178.86Z" fill="#3F3D56"/>
<path id="bar-2" d="M1062.18 196.851H845.483V202.532H1062.18V196.851Z" fill="#3F3D56"/>
<path id="bar-1" d="M1062.18 214.842H845.483V220.523H1062.18V214.842Z" fill="#3F3D56"/>
</g>
<path id="Vector_20" d="M1062.18 47.2449H1035.68V73.7574H1062.18V47.2449Z" fill="#F2F2F2"/>
<path id="Vector_21" d="M1074.48 86.0668H1042.31V53.873H1074.48V86.0668ZM1043.71 84.6671H1073.08V55.2728H1043.71V84.6671Z" fill="#3F3D56"/>
<path id="Vector_22" d="M1148.29 415.62H1082.05V410.845C1082.05 410.72 1082.03 410.597 1081.98 410.482C1081.93 410.368 1081.86 410.263 1081.77 410.175C1081.69 410.087 1081.58 410.018 1081.47 409.97C1081.35 409.922 1081.23 409.898 1081.1 409.898H1058.39C1058.27 409.898 1058.15 409.922 1058.03 409.97C1057.92 410.018 1057.81 410.087 1057.72 410.175C1057.64 410.263 1057.57 410.368 1057.52 410.482C1057.47 410.597 1057.45 410.72 1057.45 410.845V415.62H1043.25V410.845C1043.25 410.72 1043.23 410.597 1043.18 410.482C1043.13 410.368 1043.06 410.263 1042.98 410.175C1042.89 410.087 1042.78 410.018 1042.67 409.97C1042.55 409.922 1042.43 409.898 1042.31 409.898H1019.6C1019.47 409.898 1019.35 409.922 1019.23 409.97C1019.12 410.018 1019.02 410.087 1018.93 410.175C1018.84 410.263 1018.77 410.368 1018.72 410.482C1018.68 410.597 1018.65 410.72 1018.65 410.845V415.62H1004.46V410.845C1004.46 410.72 1004.43 410.597 1004.38 410.482C1004.34 410.368 1004.27 410.263 1004.18 410.175C1004.09 410.087 1003.99 410.018 1003.87 409.97C1003.76 409.922 1003.63 409.898 1003.51 409.898H980.8C980.676 409.898 980.553 409.922 980.438 409.97C980.323 410.018 980.219 410.087 980.131 410.175C980.043 410.263 979.973 410.368 979.926 410.482C979.878 410.597 979.854 410.72 979.854 410.845V415.62H965.66V410.845C965.66 410.72 965.635 410.597 965.588 410.482C965.54 410.368 965.47 410.263 965.383 410.175C965.295 410.087 965.19 410.018 965.076 409.97C964.961 409.922 964.838 409.898 964.713 409.898H942.003C941.879 409.898 941.756 409.922 941.641 409.97C941.526 410.018 941.422 410.087 941.334 410.175C941.246 410.263 941.176 410.368 941.129 410.482C941.081 410.597 941.057 410.72 941.057 410.845V415.62H926.863V410.845C926.863 410.72 926.838 410.597 926.791 410.482C926.743 410.368 926.673 410.263 926.585 410.175C926.498 410.087 926.393 410.018 926.278 409.97C926.164 409.922 926.041 409.898 925.916 409.898H903.206C903.082 409.898 902.959 409.922 902.844 409.97C902.729 410.018 902.625 410.087 902.537 410.175C902.449 410.263 902.379 410.368 902.332 410.482C902.284 410.597 902.26 410.72 902.26 410.845V415.62H888.066V410.845C888.066 410.72 888.041 410.597 887.993 410.482C887.946 410.368 887.876 410.263 887.788 410.175C887.701 410.087 887.596 410.018 887.481 409.97C887.367 409.922 887.244 409.898 887.119 409.898H864.409C864.285 409.898 864.162 409.922 864.047 409.97C863.932 410.018 863.828 410.087 863.74 410.175C863.652 410.263 863.582 410.368 863.535 410.482C863.487 410.597 863.463 410.72 863.463 410.845V415.62H849.269V410.845C849.269 410.72 849.244 410.597 849.196 410.482C849.149 410.368 849.079 410.263 848.991 410.175C848.904 410.087 848.799 410.018 848.684 409.97C848.57 409.922 848.447 409.898 848.322 409.898H670.424C670.299 409.898 670.176 409.922 670.061 409.97C669.947 410.018 669.842 410.087 669.754 410.175C669.667 410.263 669.597 410.368 669.549 410.482C669.502 410.597 669.477 410.72 669.477 410.845V415.62H655.283V410.845C655.283 410.72 655.259 410.597 655.211 410.482C655.164 410.368 655.094 410.263 655.006 410.175C654.918 410.087 654.814 410.018 654.699 409.97C654.584 409.922 654.461 409.898 654.337 409.898H631.627C631.502 409.898 631.379 409.922 631.264 409.97C631.15 410.018 631.045 410.087 630.957 410.175C630.87 410.263 630.8 410.368 630.752 410.482C630.705 410.597 630.68 410.72 630.68 410.845V415.62H616.486V410.845C616.486 410.72 616.462 410.597 616.414 410.482C616.367 410.368 616.297 410.263 616.209 410.175C616.121 410.087 616.017 410.018 615.902 409.97C615.787 409.922 615.664 409.898 615.54 409.898H592.829C592.705 409.898 592.582 409.922 592.467 409.97C592.352 410.018 592.248 410.087 592.16 410.175C592.072 410.263 592.003 410.368 591.955 410.482C591.908 410.597 591.883 410.72 591.883 410.845V415.62H577.689V410.845C577.689 410.72 577.665 410.597 577.617 410.482C577.57 410.368 577.5 410.263 577.412 410.175C577.324 410.087 577.22 410.018 577.105 409.97C576.99 409.922 576.867 409.898 576.743 409.898H554.032C553.908 409.898 553.785 409.922 553.67 409.97C553.555 410.018 553.451 410.087 553.363 410.175C553.275 410.263 553.206 410.368 553.158 410.482C553.111 410.597 553.086 410.72 553.086 410.845V415.62H538.892V410.845C538.892 410.72 538.868 410.597 538.82 410.482C538.772 410.368 538.703 410.263 538.615 410.175C538.527 410.087 538.423 410.018 538.308 409.97C538.193 409.922 538.07 409.898 537.946 409.898H515.235C515.111 409.898 514.988 409.922 514.873 409.97C514.758 410.018 514.654 410.087 514.566 410.175C514.478 410.263 514.409 410.368 514.361 410.482C514.314 410.597 514.289 410.72 514.289 410.845V415.62H500.095V410.845C500.095 410.72 500.071 410.597 500.023 410.482C499.975 410.368 499.906 410.263 499.818 410.175C499.73 410.087 499.626 410.018 499.511 409.97C499.396 409.922 499.273 409.898 499.149 409.898H476.438C476.314 409.898 476.191 409.922 476.076 409.97C475.961 410.018 475.857 410.087 475.769 410.175C475.681 410.263 475.612 410.368 475.564 410.482C475.516 410.597 475.492 410.72 475.492 410.845V415.62H461.298V410.845C461.298 410.72 461.273 410.597 461.226 410.482C461.178 410.368 461.109 410.263 461.021 410.175C460.933 410.087 460.829 410.018 460.714 409.97C460.599 409.922 460.476 409.898 460.352 409.898H437.641C437.517 409.898 437.394 409.922 437.279 409.97C437.164 410.018 437.06 410.087 436.972 410.175C436.884 410.263 436.815 410.368 436.767 410.482C436.719 410.597 436.695 410.72 436.695 410.845V415.62H393.167C387.143 415.62 381.367 418.015 377.108 422.276C372.849 426.538 370.456 432.318 370.456 438.345V448.621C370.456 454.648 372.849 460.428 377.108 464.69C381.367 468.952 387.143 471.346 393.167 471.346H1148.29C1154.31 471.346 1160.09 468.952 1164.35 464.69C1168.61 460.428 1171 454.648 1171 448.621V438.345C1171 432.318 1168.61 426.538 1164.35 422.276C1160.09 418.015 1154.31 415.62 1148.29 415.62Z" fill="#3F3D56"/>
</g>
</g>
<defs>
<clipPath id="clip0">
<rect width="1171" height="487" fill="white"/>
</clipPath>
</defs>
</svg>
