<svg width="566" height="425" viewBox="0 0 566 425" fill="none" xmlns="http://www.w3.org/2000/svg">
<g id="bg-footer">
<g clip-path="url(#clip0)">
<path id="Path 104" d="M261.506 400.448C276.881 398.443 291.664 396.738 305.855 395.334L300.396 386.181C302.293 385.653 310.509 390.951 310.509 390.951L303.57 364.482C313.053 365.546 317.463 392.543 317.463 392.543L328.216 383.552L322.917 393.736C366.342 389.943 403.81 388.773 435.31 389.066L430.638 381.233C432.534 380.704 440.75 386.003 440.75 386.003L433.812 359.533C443.295 360.597 447.704 387.595 447.704 387.595L458.458 378.604L452.848 389.39C479.245 390.125 500.754 391.874 517.346 393.779C512.686 381.607 496.399 369.894 496.399 369.894C508.928 373.165 515.442 378.487 518.815 383.418C519.486 358.211 514.878 333.143 505.286 309.823C505.286 309.823 530.547 357.476 526.73 389.23L526.246 394.872C548.245 397.758 559.282 400.631 559.282 400.631L261.506 400.448Z" fill="#3F3D56"/>
<path id="Ellipse 8" d="M283 425.001C439.296 425.001 565.999 415.145 565.999 402.988C565.999 390.831 439.296 380.975 283 380.975C126.703 380.975 0 390.831 0 402.988C0 415.145 126.703 425.001 283 425.001Z" fill="#009F8B"/>
<path id="Path 105" d="M290.075 50.7866C290.075 50.7866 296.367 65.724 282.213 72.7994C268.059 79.8749 319.946 93.2399 325.449 75.9459C325.449 75.9459 311.299 70.4429 317.588 53.933L290.075 50.7866Z" fill="#FFB9B9"/>
<path id="Path 106" d="M306.976 359.355L306.19 375.865L319.553 378.223V361.714L306.976 359.355Z" fill="#FFB9B9"/>
<path id="Path 107" d="M256.665 359.355L257.451 375.865L244.087 378.223V361.714L256.665 359.355Z" fill="#FFB9B9"/>
<path id="Ellipse 9" d="M305.404 59.8285C317.561 59.8285 327.416 49.973 327.416 37.8156C327.416 25.6582 317.561 15.8027 305.404 15.8027C293.248 15.8027 283.393 25.6582 283.393 37.8156C283.393 49.973 293.248 59.8285 305.404 59.8285Z" fill="#FFB9B9"/>
<path id="Path 108" d="M336.062 197.404L335.276 203.697L339.207 218.634L344.71 205.27L336.062 197.404Z" fill="#FFB9B9"/>
<path id="Path 109" d="M248.805 199.765L244.085 255.582C244.085 255.582 238.583 265.803 241.727 274.45C241.727 274.45 237.008 286.243 238.581 290.174C240.154 294.104 240.939 298.036 239.367 299.607C237.794 301.179 237.009 345.205 239.367 349.135C241.725 353.066 243.297 362.5 243.297 362.5C243.297 362.5 256.661 365.647 259.805 356.997C262.949 348.348 261.378 347.564 264.524 345.205C267.671 342.846 267.671 309.827 267.671 309.827C267.671 309.827 263.74 305.897 266.098 304.324C268.455 302.752 270.028 304.324 267.671 300.394C265.313 296.463 261.378 296.463 265.313 294.891C267.504 294.042 269.611 292.988 271.605 291.744L294.402 231.996C294.402 231.996 303.05 298.817 304.622 301.964C306.194 305.11 308.552 301.178 306.195 305.11C303.838 309.043 303.049 306.683 303.837 309.041C304.625 311.398 299.118 345.205 302.264 352.28C304.1 356.369 305.676 360.571 306.983 364.858C306.983 364.858 319.561 370.361 321.133 366.432C322.706 362.502 321.919 355.426 324.28 354.639C326.64 353.852 328.999 352.281 328.999 345.991C328.999 339.702 333.718 309.042 333.718 309.042C333.718 309.042 328.216 306.683 329.788 302.749C331.36 298.814 331.361 299.602 330.574 296.456C329.786 293.309 328.216 292.525 329.788 290.163C331.36 287.801 331.361 280.729 331.361 280.729L340.794 218.622L333.495 197.404L248.805 199.765Z" fill="#2F2E41"/>
<path id="Path 110" d="M307.762 371.935C307.762 371.935 305.404 369.577 304.616 371.935C303.828 374.293 303.83 396.306 303.83 396.306C303.83 396.306 310.122 401.026 310.122 403.381C310.122 405.737 314.841 413.601 325.844 412.029C325.955 412.014 326.063 411.997 326.171 411.979C327.764 411.721 329.275 411.096 330.585 410.152C331.895 409.209 332.968 407.974 333.718 406.545C334.469 405.116 334.877 403.532 334.91 401.918C334.943 400.304 334.6 398.705 333.909 397.246L322.699 373.507C322.699 373.507 314.837 365.645 307.762 371.935Z" fill="#2F2E41"/>
<path id="Path 111" d="M255.88 371.935C255.88 371.935 258.238 369.577 259.026 371.935C259.814 374.293 259.812 396.306 259.812 396.306C259.812 396.306 253.519 401.026 253.519 403.381C253.519 405.737 248.8 413.601 237.797 412.029C237.686 412.014 237.577 411.997 237.47 411.979C235.876 411.721 234.365 411.096 233.055 410.153C231.745 409.21 230.672 407.975 229.921 406.546C229.171 405.117 228.763 403.532 228.73 401.919C228.696 400.305 229.039 398.705 229.731 397.246L240.941 373.507C240.941 373.507 248.805 365.645 255.88 371.935Z" fill="#2F2E41"/>
<path id="Path 112" d="M288.628 13.972L284.695 12.3988C284.695 12.3988 292.919 3.34519 304.359 4.13264L301.141 0.589544C301.141 0.589544 309.007 -2.55693 316.157 5.7067C319.916 10.0521 324.265 15.1594 326.976 20.9133H331.188L329.43 24.7843L335.583 28.6553L329.268 27.9597C329.866 31.3014 329.662 34.7375 328.671 37.9845L328.837 41.0441C328.837 41.0441 321.517 29.7184 321.517 28.1435V32.0799C321.517 32.0799 317.585 28.5377 317.585 26.1753L315.439 28.931L314.363 24.6013L301.135 28.931L303.28 25.3887L295.057 26.5695L298.275 22.2398C298.275 22.2398 288.979 27.3569 288.621 31.6866C288.264 36.0163 283.616 41.5276 283.616 41.5276L281.471 37.5912C281.471 37.5912 278.26 19.8766 288.628 13.972Z" fill="#2F2E41"/>
<path id="Path 113" d="M339.203 86.557H347.961C348.605 86.5567 349.229 86.7754 349.732 87.1772C350.235 87.579 350.586 88.14 350.727 88.7678C352.078 94.7527 355.562 111.718 354.925 125.079C354.138 141.588 355.711 153.381 354.925 155.74C354.139 158.099 354.925 158.886 354.925 161.243C354.925 163.599 357.283 162.028 354.925 165.173C352.567 168.318 352.567 167.531 352.567 169.893C352.567 172.255 344.705 208.415 344.705 208.415C344.705 208.415 339.301 199.532 333.356 201.222L334.486 169.107L336.059 155.742L333.701 132.158L339.203 86.557Z" fill="#3F3D56"/>
<path id="Path 114" d="M301.08 78.3033C301.08 78.3033 287.716 77.8173 283.392 72.1644C283.392 72.1644 255.485 81.4481 252.343 89.3093C249.201 97.1705 263.349 132.548 263.349 132.548C263.349 132.548 238.979 204.875 250.771 204.875C262.563 204.875 289.29 214.309 305.013 208.806C314.755 205.427 324.741 202.798 334.885 200.944C334.885 200.944 336.458 179.717 334.885 175.787C333.312 171.856 329.382 174.214 331.739 168.711C334.095 163.209 333.312 162.418 332.524 160.064C331.737 157.709 334.097 154.561 334.097 151.416C334.097 148.271 333.312 141.196 333.312 141.196C333.312 141.196 354.537 91.6675 349.82 86.9503C345.103 82.2331 321.094 73.1447 321.094 73.1447C321.094 73.1447 314.444 81.4448 301.08 78.3033Z" fill="#3F3D56"/>
<g id="clip 2">
<path id="Ellipse 10" d="M477.956 318.082C487.507 318.082 495.25 310.338 495.25 300.786C495.25 291.234 487.507 283.491 477.956 283.491C468.404 283.491 460.661 291.234 460.661 300.786C460.661 310.338 468.404 318.082 477.956 318.082Z" fill="#00DBBF"/>
<path id="Ellipse 11" d="M466.163 309.434C468.334 309.434 470.093 305.562 470.093 300.786C470.093 296.01 468.334 292.138 466.163 292.138C463.992 292.138 462.233 296.01 462.233 300.786C462.233 305.562 463.992 309.434 466.163 309.434Z" fill="white"/>
</g>
<g id="clip 4">
<path id="Ellipse 12" d="M422.142 207.233C431.693 207.233 439.436 199.49 439.436 189.938C439.436 180.386 431.693 172.642 422.142 172.642C412.59 172.642 404.847 180.386 404.847 189.938C404.847 199.49 412.59 207.233 422.142 207.233Z" fill="#3F3D56"/>
<path id="Ellipse 13" d="M417.532 183.57C421.4 180.766 423.503 177.068 422.229 175.31C420.955 173.551 416.786 174.399 412.918 177.202C409.05 180.006 406.947 183.704 408.221 185.462C409.495 187.221 413.664 186.373 417.532 183.57Z" fill="white"/>
</g>
<g id="clip 6">
<path id="Ellipse 14" d="M466.163 105.591C472.115 105.591 476.941 100.765 476.941 94.8124C476.941 88.8597 472.115 84.034 466.163 84.034C460.211 84.034 455.385 88.8597 455.385 94.8124C455.385 100.765 460.211 105.591 466.163 105.591Z" fill="#00DBBF"/>
<path id="Ellipse 15" d="M463.291 90.8438C465.702 89.0966 467.012 86.7919 466.218 85.6962C465.424 84.6005 462.826 85.1287 460.416 86.876C458.005 88.6232 456.694 90.9279 457.488 92.0236C458.282 93.1193 460.88 92.5911 463.291 90.8438Z" fill="white"/>
</g>
<g id="clip">
<path id="Ellipse 16" d="M385.195 383.106C391.147 383.106 395.972 378.28 395.972 372.327C395.972 366.375 391.147 361.549 385.195 361.549C379.242 361.549 374.417 366.375 374.417 372.327C374.417 378.28 379.242 383.106 385.195 383.106Z" fill="#3F3D56"/>
<path id="Ellipse 17" d="M382.32 368.359C384.731 366.611 386.041 364.307 385.248 363.211C384.454 362.115 381.855 362.644 379.445 364.391C377.034 366.138 375.723 368.443 376.517 369.538C377.311 370.634 379.909 370.106 382.32 368.359Z" fill="white"/>
</g>
<g id="clip 1">
<path id="Ellipse 18" d="M476.383 239.467C485.935 239.467 493.678 231.723 493.678 222.171C493.678 212.619 485.935 204.875 476.383 204.875C466.832 204.875 459.089 212.619 459.089 222.171C459.089 231.723 466.832 239.467 476.383 239.467Z" fill="#00DBBF"/>
<path id="Ellipse 19" d="M464.592 230.819C466.762 230.819 468.522 226.947 468.522 222.171C468.522 217.395 466.762 213.523 464.592 213.523C462.421 213.523 460.661 217.395 460.661 222.171C460.661 226.947 462.421 230.819 464.592 230.819Z" fill="white"/>
</g>
<g id="clip 5">
<path id="Ellipse 20" d="M420.569 128.617C430.121 128.617 437.864 120.874 437.864 111.321C437.864 101.769 430.121 94.0257 420.569 94.0257C411.018 94.0257 403.275 101.769 403.275 111.321C403.275 120.874 411.018 128.617 420.569 128.617Z" fill="#00DBBF"/>
<path id="Ellipse 21" d="M415.96 104.954C419.828 102.151 421.931 98.4527 420.657 96.6943C419.383 94.9359 415.214 95.7832 411.346 98.5868C407.477 101.39 405.374 105.088 406.648 106.847C407.923 108.605 412.091 107.758 415.96 104.954Z" fill="white"/>
</g>
<g id="clip 7">
<path id="Ellipse 22" d="M464.592 26.9744C470.544 26.9744 475.369 22.1488 475.369 16.1961C475.369 10.2434 470.544 5.41776 464.592 5.41776C458.639 5.41776 453.814 10.2434 453.814 16.1961C453.814 22.1488 458.639 26.9744 464.592 26.9744Z" fill="#00DBBF"/>
<path id="Ellipse 23" d="M461.718 12.2283C464.129 10.4811 465.44 8.17644 464.646 7.08075C463.852 5.98506 461.254 6.51326 458.843 8.26051C456.432 10.0078 455.122 12.3124 455.916 13.4081C456.71 14.5038 459.308 13.9756 461.718 12.2283Z" fill="white"/>
</g>
<g id="clip-1">
<path id="Ellipse 24" d="M383.621 304.489C389.574 304.489 394.399 299.664 394.399 293.711C394.399 287.758 389.574 282.933 383.621 282.933C377.669 282.933 372.844 287.758 372.844 293.711C372.844 299.664 377.669 304.489 383.621 304.489Z" fill="#3F3D56"/>
<path id="Ellipse 25" d="M380.748 289.742C383.159 287.995 384.47 285.69 383.676 284.595C382.882 283.499 380.284 284.027 377.873 285.774C375.462 287.522 374.151 289.826 374.945 290.922C375.739 292.018 378.337 291.49 380.748 289.742Z" fill="white"/>
</g>
<path id="Rectangle 117" d="M257.058 222.905H39.3052V355.082H257.058V222.905Z" fill="#F2F2F2"/>
<path id="Path 115" d="M239.371 205.268C239.371 205.268 232.296 242.217 244.09 239.072C255.885 235.928 250.383 205.268 250.383 205.268H239.371Z" fill="#FFB9B9"/>
<path id="Path 116" d="M257.451 86.557L254.659 87.9531C253.572 88.4964 252.626 89.284 251.894 90.254C251.163 91.2241 250.665 92.3504 250.441 93.5447L239.371 152.595C239.371 152.595 236.224 159.67 236.224 160.456C236.224 161.242 237.798 161.242 236.224 163.603C234.651 165.963 232.294 165.176 233.866 166.749C234.765 167.565 235.326 168.687 235.44 169.896L237.013 208.417C237.013 208.417 250.377 204.487 254.307 208.417C254.307 208.417 250.377 196.625 252.734 192.694C255.091 188.764 255.092 183.261 255.092 183.261C255.092 183.261 253.519 183.261 257.45 179.33C261.381 175.399 262.17 173.827 261.381 173.037C260.591 172.247 259.807 165.175 259.807 164.389C259.807 163.603 267.669 110.93 267.669 110.93L257.451 86.557Z" fill="#3F3D56"/>
<path id="Ellipse 26" d="M150.891 333.415C177.217 333.415 198.559 312.072 198.559 285.745C198.559 259.417 177.217 238.074 150.891 238.074C124.565 238.074 103.223 259.417 103.223 285.745C103.223 312.072 124.565 333.415 150.891 333.415Z" fill="#00DBBF"/>
<path id="Path 117" d="M192.396 315.673C183.244 315.673 163.034 306.273 145.06 295.263C122.755 281.601 101.095 263.744 104.88 257.56C105.951 255.813 108.606 255.356 112.994 256.162L112.68 257.875C109.285 257.25 106.981 257.468 106.367 258.47C105.472 259.931 107.443 264.175 115.669 271.7C123.164 278.56 133.925 286.399 145.973 293.778C158.021 301.156 169.892 307.18 179.406 310.742C189.847 314.649 194.523 314.478 195.418 313.018C196.033 312.014 195.179 309.864 193.075 307.117L194.458 306.058C197.174 309.606 197.974 312.179 196.904 313.924C196.165 315.128 194.602 315.673 192.396 315.673Z" fill="#3F3D56"/>
<g id="rounder">
<path id="Ellipse 27" d="M142.98 275.218C146.788 275.218 149.875 272.131 149.875 268.322C149.875 264.514 146.788 261.426 142.98 261.426C139.172 261.426 136.084 264.514 136.084 268.322C136.084 272.131 139.172 275.218 142.98 275.218Z" fill="white"/>
<path id="Ellipse 28" d="M144.977 310.723C147.516 310.723 149.574 308.664 149.574 306.125C149.574 303.586 147.516 301.528 144.977 301.528C142.438 301.528 140.38 303.586 140.38 306.125C140.38 308.664 142.438 310.723 144.977 310.723Z" fill="white"/>
<path id="Ellipse 29" d="M160.807 294.962C163.345 294.962 165.404 292.904 165.404 290.365C165.404 287.826 163.345 285.768 160.807 285.768C158.268 285.768 156.21 287.826 156.21 290.365C156.21 292.904 158.268 294.962 160.807 294.962Z" fill="white"/>
</g>
<path id="heart" d="M45.9165 215.466C42.8271 212.83 38.8174 211.53 34.7696 211.852C30.7218 212.173 26.9674 214.089 24.3323 217.179C21.6972 220.268 20.3973 224.278 20.7185 228.326C21.0398 232.374 22.9559 236.129 26.0453 238.764L49.3426 258.637L69.2138 235.338C70.5186 233.808 71.5093 232.036 72.1293 230.124C72.7493 228.211 72.9866 226.195 72.8275 224.19C72.6685 222.186 72.1162 220.233 71.2022 218.442C70.2882 216.651 69.0305 215.057 67.5008 213.752C65.971 212.448 64.1993 211.457 62.2867 210.837C60.3741 210.217 58.3581 209.979 56.3538 210.138C54.3496 210.298 52.3962 210.85 50.6054 211.764C48.8146 212.678 47.2213 213.936 45.9165 215.466V215.466Z" fill="#FF6584"/>
</g>
</g>
<defs>
<clipPath id="clip0">
<rect width="566" height="425" fill="white"/>
</clipPath>
</defs>
</svg>
