<svg xmlns="http://www.w3.org/2000/svg" xmlns:xlink="http://www.w3.org/1999/xlink" width="1920" height="1081" viewBox="0 0 1920 1081"><defs><clipPath id="a"><rect width="1920" height="1081" fill="#fff" stroke="#707070" stroke-width="1"/></clipPath><linearGradient id="b" x1="0.157" y1="0.098" x2="0.842" y2="0.113" gradientUnits="objectBoundingBox"><stop offset="0" stop-color="#f9e3e3"/><stop offset="1" stop-color="#dbf7fb"/></linearGradient></defs><g clip-path="url(#a)"><path d="M-5262.193,1401.507h0L-5969,630.266l757.681-718.932L-4827.7,329.92l-373.052,353.974,323.192,352.655-384.628,364.958Zm1410.424-5.88h0l-331.491-361.711,357.126-338.863-320.924-350.18,477.346-452.933L-3017.3,603.831l-834.473,791.8Zm-704.149-8.11h0l-321.646-350.969,373.051-353.974L-4827.7,329.92-4470.97-8.569l323.914,353.442-356.571,338.335-.556.528.556.606,320.369,349.574L-4503.628,1337.9h0l-52.288,49.615Z" transform="translate(5462.128 -343.462)" fill="url(#b)"/></g></svg>