<svg xmlns="http://www.w3.org/2000/svg" width="25.477" height="24.841" viewBox="0 0 25.477 24.841">
  <path id="github-brands" d="M8.521,28c0,.1-.118.185-.267.185-.17.015-.288-.067-.288-.185,0-.1.118-.185.267-.185C8.388,27.8,8.521,27.883,8.521,28Zm-1.6-.231c-.036.1.067.221.221.252a.241.241,0,0,0,.318-.1c.031-.1-.067-.221-.221-.267a.264.264,0,0,0-.318.118Zm2.27-.087c-.149.036-.252.134-.236.252.015.1.149.17.3.134s.252-.134.236-.236S9.343,27.668,9.194,27.683ZM12.574,8A12.317,12.317,0,0,0,0,20.533,12.878,12.878,0,0,0,8.706,32.82c.657.118.889-.288.889-.622,0-.318-.015-2.075-.015-3.154,0,0-3.6.77-4.351-1.531,0,0-.586-1.495-1.428-1.88,0,0-1.176-.806.082-.791a2.711,2.711,0,0,1,1.983,1.325A2.715,2.715,0,0,0,9.61,27.241a2.855,2.855,0,0,1,.822-1.731c-2.871-.318-5.768-.735-5.768-5.676a3.893,3.893,0,0,1,1.212-3.025,4.853,4.853,0,0,1,.134-3.488c1.074-.334,3.544,1.387,3.544,1.387a12.135,12.135,0,0,1,6.451,0s2.471-1.726,3.544-1.387a4.851,4.851,0,0,1,.134,3.488,3.993,3.993,0,0,1,1.325,3.025c0,4.957-3.025,5.352-5.9,5.676a3.038,3.038,0,0,1,.873,2.383c0,1.731-.015,3.873-.015,4.294,0,.334.236.74.889.622a12.759,12.759,0,0,0,8.619-12.276A12.6,12.6,0,0,0,12.574,8ZM4.993,25.716c-.067.051-.051.17.036.267.082.082.2.118.267.051.067-.051.051-.17-.036-.267C5.178,25.685,5.059,25.649,4.993,25.716ZM4.438,25.3c-.036.067.015.149.118.2a.153.153,0,0,0,.221-.036c.036-.067-.015-.149-.118-.2C4.556,25.233,4.474,25.248,4.438,25.3ZM6.1,27.128c-.082.067-.051.221.067.318.118.118.267.134.334.051.067-.067.036-.221-.067-.318C6.323,27.062,6.169,27.046,6.1,27.128Zm-.586-.755c-.082.051-.082.185,0,.3s.221.17.288.118a.234.234,0,0,0,0-.318C5.732,26.358,5.6,26.307,5.517,26.373Z" transform="translate(0 -8)" fill="#f6a0d4"/>
</svg>
