<svg xmlns="http://www.w3.org/2000/svg" width="66" height="98.808" viewBox="0 0 66 98.808"><g transform="translate(-358.239 -196.668)"><g transform="translate(359.464 197.668)"><path d="M360.391,275.293c0-.616.1-8.693.139-12.157l-.3-59.174m10.161,5.85c0,2.771,1.061,64.866,1.061,65.481m38.391,0-32.679-40.849M360.228,197.8l31.65-.135q11.835,0,17.9,2.453a20.364,20.364,0,0,1,9.323,7.1,18.275,18.275,0,0,1,3.262,10.767,19.982,19.982,0,0,1-3.184,11.171A21.469,21.469,0,0,1,410,236.839q-5.991,2.8-15.889,2.915l29.71,35.539m-63.6-71.332M376.4,234.127c5.627,0,20.981-.2,23.256-.9a14.187,14.187,0,0,0,7.661-5.08,15.132,15.132,0,0,0,2.8-9.411,15.418,15.418,0,0,0-2.024-8.169,12.638,12.638,0,0,0-5.522-4.965q-3.5-1.645-10.436-1.645l-31.912.309" transform="translate(-360.228 -197.668)" fill="none" stroke="#000" stroke-width="2"/></g><text transform="translate(358.239 292.476)" font-size="10" font-family="Exo-Light, Exo" font-weight="300" letter-spacing="0.574em"><tspan x="0" y="0">RAIWEB</tspan></text></g></svg>