<svg xmlns="http://www.w3.org/2000/svg" width="24.209" height="19.662" viewBox="0 0 24.209 19.662">
  <path id="twitter-brands" d="M21.721,52.982c.015.215.015.43.015.645A14.02,14.02,0,0,1,7.619,67.744,14.021,14.021,0,0,1,0,65.517a10.262,10.262,0,0,0,1.2.061,9.937,9.937,0,0,0,6.16-2.12,4.97,4.97,0,0,1-4.639-3.441,6.258,6.258,0,0,0,.937.077,5.247,5.247,0,0,0,1.306-.169A4.962,4.962,0,0,1,.983,55.056v-.061a5,5,0,0,0,2.243.63A4.969,4.969,0,0,1,1.69,48.988,14.1,14.1,0,0,0,11.92,54.18a5.6,5.6,0,0,1-.123-1.137,4.966,4.966,0,0,1,8.587-3.395,9.769,9.769,0,0,0,3.149-1.2,4.948,4.948,0,0,1-2.181,2.734,9.947,9.947,0,0,0,2.857-.768,10.666,10.666,0,0,1-2.488,2.565Z" transform="translate(0 -48.082)" fill="#f6a0d4"/>
</svg>
