<svg xmlns="http://www.w3.org/2000/svg" width="1016.344" height="412.829" viewBox="0 0 1016.344 412.829">
  <g id="Website" transform="translate(0 -0.919)" opacity="0.46">
    <g id="Group-32" transform="translate(1.041 1.959)">
      <path id="Case" d="M126.008,42.9a11.412,11.412,0,0,1,11.429-11.418H534.975A11.421,11.421,0,0,1,546.4,42.9V314.969a11.412,11.412,0,0,1-11.429,11.419H137.437a11.421,11.421,0,0,1-11.429-11.419Z" transform="translate(69.908 19.505)" fill="#fff" stroke="#ec33a2" stroke-width="2.081" fill-rule="evenodd"/>
      <path id="Case-2" data-name="Case" d="M142.41,52.51a4.9,4.9,0,0,1,4.9-4.9H506.069a4.89,4.89,0,0,1,4.9,4.9V255.227a4.9,4.9,0,0,1-4.9,4.9H147.311a4.89,4.89,0,0,1-4.9-4.9Z" transform="translate(79.22 28.663)" fill="#fff" stroke="#ec33a2" stroke-width="2.081" fill-rule="evenodd"/>
      <path id="Case-3" data-name="Case" d="M242.464,219.591h60.281l4.07,52.618H238.394Z" transform="translate(133.714 126.302)" fill="#fff" stroke="#ec33a2" stroke-width="2.081" fill-rule="evenodd"/>
      <path id="Keyboard" d="M222.334-249.273v-5.512a5.917,5.917,0,0,1,5.91-5.914H335.2a5.921,5.921,0,0,1,5.91,5.914v5.512a.4.4,0,0,1-.409.4H222.745A.405.405,0,0,1,222.334-249.273Z" transform="translate(124.596 659.21)" fill="#fff" stroke="#ec33a2" stroke-width="2.081" fill-rule="evenodd"/>
      <ellipse id="Oval-6" cx="7.551" cy="7.546" rx="7.551" ry="7.546" transform="translate(398.767 312.037)" fill="none" stroke="#ec33a2" stroke-width="2.081"/>
      <rect id="Case-4" data-name="Case" width="80.812" height="158.262" rx="6.244" transform="translate(157.141 252.078)" fill="#fff" stroke="#ec33a2" stroke-width="2.081"/>
      <path id="Case-5" data-name="Case" d="M101.275,170.937h80.812V288.125H101.275Z" transform="translate(55.866 98.679)" fill="#fff" stroke="#ec33a2" stroke-width="2.081" fill-rule="evenodd"/>
      <rect id="Rectangle-11" width="38.775" height="3.263" rx="1.041" transform="translate(178.364 259.012)" fill="#ec33a2"/>
      <rect id="Rectangle-11-2" data-name="Rectangle-11" width="9.306" height="9.3" rx="2.966" transform="translate(193.058 393.617)" fill="#ec33a2"/>
      <ellipse id="Oval-6-2" data-name="Oval-6" cx="6.122" cy="6.118" rx="6.122" ry="6.118" transform="translate(173.875 321.827)" fill="#fff" stroke="#ec33a2" stroke-width="2.081"/>
      <rect id="Rectangle-11-3" data-name="Rectangle-11" width="28.571" height="3.263" rx="1.041" transform="translate(194.283 317.34)" fill="#ec33a2"/>
      <rect id="Rectangle-11-4" data-name="Rectangle-11" width="20.408" height="3.263" rx="1.041" transform="translate(194.283 326.314)" fill="#ec33a2"/>
      <rect id="Rectangle-11-5" data-name="Rectangle-11" width="12.245" height="3.263" rx="1.041" transform="translate(194.283 335.287)" fill="#ec33a2"/>
      <ellipse id="Oval-7" cx="62.653" cy="62.611" rx="62.653" ry="62.611" transform="translate(53.06 203.539)" fill="#fff" stroke="#ec33a2" stroke-width="2.081"/>
      <rect id="Case-6" data-name="Case" width="302.031" height="202.723" rx="6.244" transform="translate(499.583 190.486)" fill="#fff" stroke="#ec33a2" stroke-width="2.081"/>
      <path id="Keyboard-2" data-name="Keyboard" d="M306.426,250.17v8.166a8.572,8.572,0,0,0,8.563,8.566H641.53a8.573,8.573,0,0,0,8.563-8.566V250.17a.4.4,0,0,0-.406-.4H306.832A.4.4,0,0,0,306.426,250.17Z" transform="translate(172.339 143.437)" fill="#fff" stroke="#ec33a2" stroke-width="2.081" fill-rule="evenodd"/>
      <path id="Notch" d="M446.984,249.89l-45.714,0a12.648,12.648,0,0,0,11.818,8.159h22.078A12.646,12.646,0,0,0,446.984,249.89Z" transform="translate(226.185 143.503)" fill="#fff" stroke="#ec33a2" stroke-width="2.081" fill-rule="evenodd"/>
      <rect id="Screen" width="274.856" height="164.727" rx="2.081" stroke-width="2.081" fill="#fff" stroke="#ec33a2" transform="translate(513.049 209.656)"/>
      <ellipse id="Oval-3" cx="2.041" cy="2.039" rx="2.041" ry="2.039" transform="translate(395.095 77.907)" fill="#293347"/>
      <path id="Case-7" data-name="Case" d="M179.9,11.968H368.465v180.7a11.432,11.432,0,0,1-11.432,11.419h-165.7A11.431,11.431,0,0,1,179.9,192.666Z" transform="translate(100.504 8.426)" fill="#fff" stroke="#ec33a2" stroke-width="2.081" fill-rule="evenodd"/>
      <path id="Case-8" data-name="Case" d="M179.9,10.37A11.428,11.428,0,0,1,191.331-1.041h165.7A11.42,11.42,0,0,1,368.465,10.37V22.617H179.9Z" transform="translate(100.504 1.041)" fill="#fff" stroke="#ec33a2" stroke-width="2.081" fill-rule="evenodd"/>
      <ellipse id="Oval-5" cx="3.673" cy="3.671" rx="3.673" ry="3.671" transform="translate(294.281 8.158)" fill="#ec33a2"/>
      <ellipse id="Oval-5-2" data-name="Oval-5" cx="3.673" cy="3.671" rx="3.673" ry="3.671" transform="translate(306.525 8.158)" fill="#ec33a2"/>
      <ellipse id="Oval-5-3" data-name="Oval-5" cx="3.673" cy="3.671" rx="3.673" ry="3.671" transform="translate(318.769 8.158)" fill="#ec33a2"/>
      <rect id="Rectangle-11-6" data-name="Rectangle-11" width="7.347" height="3.263" rx="1.041" transform="translate(303.259 139.499)" fill="#ec33a2"/>
      <rect id="Rectangle-11-7" data-name="Rectangle-11" width="7.347" height="3.263" rx="1.041" transform="translate(303.259 57.921)" fill="#ec33a2"/>
      <path id="Rectangle-11-8" data-name="Rectangle-11" d="M203.92,35.9h11.023a1.632,1.632,0,1,1,0,3.263H203.92a1.632,1.632,0,1,1,0-3.263Z" transform="translate(113.215 22.016)" fill="#ec33a2" fill-rule="evenodd"/>
      <path id="Rectangle-11-9" data-name="Rectangle-11" d="M215.636,35.9h11.021a1.632,1.632,0,1,1,0,3.263H215.636a1.632,1.632,0,1,1,0-3.263Z" transform="translate(119.867 22.016)" fill="#ec33a2" fill-rule="evenodd"/>
      <path id="Rectangle-11-10" data-name="Rectangle-11" d="M227.35,35.9h20.41a1.632,1.632,0,1,1,0,3.263H227.35a1.632,1.632,0,0,1,0-3.263Z" transform="translate(126.519 22.016)" fill="#ec33a2" fill-rule="evenodd"/>
      <path id="Rectangle-11-11" data-name="Rectangle-11" d="M245.055,35.9h30.206a1.632,1.632,0,0,1,0,3.263H245.055a1.632,1.632,0,1,1,0-3.263Z" transform="translate(136.569 22.016)" fill="#ec33a2" fill-rule="evenodd"/>
      <rect id="Rectangle-11-12" data-name="Rectangle-11" width="7.347" height="3.263" rx="1.041" transform="translate(303.259 74.236)" fill="#ec33a2"/>
      <rect id="Rectangle-11-13" data-name="Rectangle-11" width="7.347" height="3.263" rx="1.041" transform="translate(303.259 90.552)" fill="#ec33a2"/>
      <rect id="Rectangle-11-14" data-name="Rectangle-11" width="7.347" height="3.263" rx="1.041" transform="translate(303.259 106.868)" fill="#ec33a2"/>
      <rect id="Rectangle-11-15" data-name="Rectangle-11" width="7.347" height="3.263" rx="1.041" transform="translate(303.259 123.184)" fill="#ec33a2"/>
      <rect id="Rectangle-11-16" data-name="Rectangle-11" width="7.347" height="3.263" rx="1.041" transform="translate(303.259 155.815)" fill="#ec33a2"/>
      <rect id="Rectangle-11-17" data-name="Rectangle-11" width="7.347" height="3.263" rx="1.041" transform="translate(303.259 172.131)" fill="#ec33a2"/>
      <rect id="Rectangle-11-18" data-name="Rectangle-11" width="28.571" height="3.263" rx="1.041" transform="translate(315.503 74.236)" fill="#ec33a2"/>
      <rect id="Rectangle-11-19" data-name="Rectangle-11" width="48.979" height="3.263" rx="1.041" transform="translate(348.156 74.236)" fill="#ec33a2"/>
      <rect id="Rectangle-11-20" data-name="Rectangle-11" width="20.408" height="3.263" rx="1.041" transform="translate(401.216 74.236)" fill="#ec33a2"/>
      <rect id="Rectangle-11-21" data-name="Rectangle-11" width="20.408" height="3.263" rx="1.041" transform="translate(315.503 90.552)" fill="#ec33a2"/>
      <rect id="Rectangle-11-22" data-name="Rectangle-11" width="20.408" height="3.263" rx="1.041" transform="translate(339.993 90.552)" fill="#ec33a2"/>
      <rect id="Rectangle-11-23" data-name="Rectangle-11" width="12.245" height="3.263" rx="1.041" transform="translate(364.483 90.552)" fill="#ec33a2"/>
      <rect id="Rectangle-11-24" data-name="Rectangle-11" width="40.815" height="3.263" rx="1.041" transform="translate(315.503 106.868)" fill="#ec33a2"/>
      <rect id="Rectangle-11-25" data-name="Rectangle-11" width="28.571" height="3.263" rx="1.041" transform="translate(360.4 106.868)" fill="#ec33a2"/>
      <rect id="Rectangle-11-26" data-name="Rectangle-11" width="40.815" height="3.263" rx="1.041" transform="translate(315.503 123.184)" fill="#ec33a2"/>
      <rect id="Rectangle-11-27" data-name="Rectangle-11" width="53.06" height="3.263" rx="1.041" transform="translate(360.4 123.184)" fill="#ec33a2"/>
      <rect id="Rectangle-11-28" data-name="Rectangle-11" width="28.571" height="3.263" rx="1.041" transform="translate(315.503 139.499)" fill="#ec33a2"/>
      <rect id="Rectangle-11-29" data-name="Rectangle-11" width="28.571" height="3.263" rx="1.041" transform="translate(348.156 139.499)" fill="#ec33a2"/>
      <rect id="Rectangle-11-30" data-name="Rectangle-11" width="16.326" height="3.263" rx="1.041" transform="translate(380.809 139.499)" fill="#ec33a2"/>
      <rect id="Rectangle-11-31" data-name="Rectangle-11" width="53.06" height="3.263" rx="1.041" transform="translate(315.503 155.815)" fill="#ec33a2"/>
      <rect id="Rectangle-11-32" data-name="Rectangle-11" width="24.489" height="3.263" rx="1.041" transform="translate(315.503 172.131)" fill="#ec33a2"/>
      <path id="Case-9" data-name="Case" d="M414.991,93.664H638.657V252.756a11.41,11.41,0,0,1-11.421,11.407H426.414a11.422,11.422,0,0,1-11.423-11.407Z" transform="translate(233.975 54.809)" fill="#fff" stroke="#ec33a2" stroke-width="2.081" fill-rule="evenodd"/>
      <path id="Case-10" data-name="Case" d="M414.991,92.066a11.413,11.413,0,0,1,11.423-11.411H627.236a11.414,11.414,0,0,1,11.421,11.411v12.247H414.991Z" transform="translate(233.975 47.423)" fill="#fff" stroke="#ec33a2" stroke-width="2.081" fill-rule="evenodd"/>
      <ellipse id="Oval-5-4" data-name="Oval-5" cx="3.673" cy="3.671" rx="3.673" ry="3.671" transform="translate(662.844 136.236)" fill="#ec33a2"/>
      <ellipse id="Oval-5-5" data-name="Oval-5" cx="3.673" cy="3.671" rx="3.673" ry="3.671" transform="translate(675.088 136.236)" fill="#ec33a2"/>
      <ellipse id="Oval-5-6" data-name="Oval-5" cx="3.673" cy="3.671" rx="3.673" ry="3.671" transform="translate(687.332 136.236)" fill="#ec33a2"/>
      <ellipse id="Oval-6-3" data-name="Oval-6" cx="40.815" cy="40.789" rx="40.815" ry="40.789" transform="translate(746.515 192.934)" fill="#fff" stroke="#ec33a2" stroke-width="2.342"/>
      <path id="Rectangle-12" d="M500.383,118.9v9.789h9.8V118.9Z" transform="translate(282.456 69.137)" fill="#fff" stroke="#ec33a2" stroke-width="2.081" fill-rule="evenodd"/>
      <path id="Rectangle-12-2" data-name="Rectangle-12" d="M500.123,170.937v9.791h9.8v-9.791Z" transform="translate(282.308 98.679)" fill="#fff" stroke="#ec33a2" stroke-width="2.081" fill-rule="evenodd"/>
      <path id="Rectangle-12-3" data-name="Rectangle-12" d="M474.089,145.18v9.789h9.8V145.18Z" transform="translate(267.527 84.056)" fill="#fff" stroke="#ec33a2" stroke-width="2.081" fill-rule="evenodd"/>
      <path id="Rectangle-12-4" data-name="Rectangle-12" d="M525.9,145.18v9.789h9.8V145.18Z" transform="translate(296.941 84.056)" fill="#fff" stroke="#ec33a2" stroke-width="2.081" fill-rule="evenodd"/>
      <line id="Line" y2="30.591" transform="translate(828.145 197.013)" fill="none" stroke="#ec33a2" stroke-linecap="square" stroke-width="2.081"/>
      <line id="Line-2" data-name="Line" y2="30.593" transform="translate(828.145 239.84)" fill="none" stroke="#ec33a2" stroke-linecap="square" stroke-width="2.081"/>
      <ellipse id="Oval-5-7" data-name="Oval-5" cx="4.898" cy="4.895" rx="4.898" ry="4.895" transform="translate(823.247 190.894)" fill="#ec33a2"/>
      <ellipse id="Oval-5-8" data-name="Oval-5" cx="4.898" cy="4.895" rx="4.898" ry="4.895" transform="translate(823.247 268.393)" fill="#ec33a2"/>
      <g id="Group-60" transform="translate(688.964 184.367)">
        <rect id="Rectangle-15" width="25.308" height="25.289" rx="3.122" stroke-width="2.081" fill="#fff" stroke="#ec33a2" transform="translate(0 0)"/>
        <rect id="Rectangle-15-2" data-name="Rectangle-15" width="25.308" height="25.289" rx="3.122" transform="translate(0 36.71)" fill="#fff" stroke="#ec33a2" stroke-width="2.081"/>
        <rect id="Rectangle-15-3" data-name="Rectangle-15" width="25.308" height="25.289" rx="3.122" transform="translate(0 73.421)" fill="#fff" stroke="#ec33a2" stroke-width="2.081"/>
      </g>
      <ellipse id="Oval-8" cx="24.489" cy="24.474" rx="24.489" ry="24.474" transform="translate(965.285 347.116)" fill="#fff" stroke="#ec33a2" stroke-width="2.081"/>
      <ellipse id="Oval-8-2" data-name="Oval-8" cx="14.285" cy="14.276" rx="14.285" ry="14.276" transform="translate(975.489 357.314)" fill="#fff" stroke="#ec33a2" stroke-width="2.081"/>
      <ellipse id="Oval-8-3" data-name="Oval-8" cx="8.163" cy="8.158" rx="8.163" ry="8.158" transform="translate(948.959 326.314)" fill="#fff" stroke="#ec33a2" stroke-width="2.081"/>
      <path id="Rectangle-16" d="M589.231,211.005a1.632,1.632,0,0,0-1.632,1.632v68.526a8.157,8.157,0,0,0,8.158,8.157h56.309a8.157,8.157,0,0,0,8.159-8.157V212.637a1.632,1.632,0,0,0-1.632-1.632Z" transform="translate(331.971 121.427)" fill="#fff" stroke="#ec33a2" stroke-width="2.081" fill-rule="evenodd"/>
      <rect id="Rectangle-16-2" data-name="Rectangle-16" width="21.226" height="26.105" rx="3.122" transform="translate(954.265 354.459)" fill="#fff" stroke="#ec33a2" stroke-width="2.081"/>
      <line id="Line-2-2" data-name="Line-2" y2="18.559" transform="translate(964.673 333.044)" fill="none" stroke="#ec33a2" stroke-linecap="square" stroke-width="2.081"/>
      <path id="Oval-8-4" data-name="Oval-8" d="M566.788,269.562h24.49a24.489,24.489,0,0,0-48.978,0Z" transform="translate(306.254 140.778)" fill="#fff" stroke="#ec33a2" stroke-width="2.081" fill-rule="evenodd"/>
      <rect id="Rectangle-11-33" data-name="Rectangle-11" width="3.265" height="5.303" rx="1.041" transform="translate(871.41 385.05)" fill="#7510f7"/>
      <path id="Rectangle-17" d="M25.107,230a24.066,24.066,0,1,0,0,48.131H123.9a2.447,2.447,0,0,0,2.447-2.447v-3.788a3.263,3.263,0,0,0-3.032-3.255c-11.215-.8-17.172-5.724-17.172-14.575s5.957-13.78,17.173-14.577a3.263,3.263,0,0,0,3.032-3.255v-3.788A2.447,2.447,0,0,0,123.9,230Z" transform="translate(-1.041 132.21)" fill="#fff" stroke="#ec33a2" stroke-width="2.081" fill-rule="evenodd"/>
      <path id="Rectangle-19" d="M122.46,266.859a.715.715,0,0,1-.715.715H22.054a16.316,16.316,0,1,1,0-32.633h99.691a.716.716,0,0,1,.715.715" transform="translate(1.62 135.017)" fill="none" stroke="#ec33a2" stroke-width="2.081" fill-rule="evenodd"/>
      <rect id="Rectangle-18" width="85.712" height="3.263" rx="1.041" transform="translate(20.409 379.341)" fill="#ec33a2"/>
      <rect id="Rectangle-18-2" data-name="Rectangle-18" width="85.712" height="3.263" rx="1.041" transform="translate(20.409 389.537)" fill="#ec33a2"/>
      <path id="Shape" d="M72.687,189.679l-6.009-5.338q-4.788-4.249-9.567-8.508c-.732-.644-1.463-1.3-2.186-1.944v2.57l6.009-5.338q4.788-4.249,9.567-8.508c.732-.644,1.463-1.3,2.186-1.942a1.818,1.818,0,0,0,0-2.57,1.876,1.876,0,0,0-2.588,0l-6.009,5.338q-4.788,4.249-9.567,8.508c-.732.644-1.463,1.3-2.186,1.942a1.827,1.827,0,0,0,0,2.57q3,2.671,6.009,5.34,4.788,4.249,9.567,8.508c.732.644,1.463,1.3,2.186,1.942a1.867,1.867,0,0,0,2.588,0,1.835,1.835,0,0,0,0-2.57Z" transform="translate(27.782 91.097)" fill="#ec33a2"/>
      <path id="Shape-2" data-name="Shape" d="M84.775,160.674l6.009,5.338q4.788,4.249,9.567,8.508c.732.644,1.463,1.3,2.186,1.942v-2.57l-6.009,5.34q-4.788,4.249-9.567,8.507c-.732.646-1.463,1.3-2.186,1.944a1.818,1.818,0,0,0,0,2.57,1.877,1.877,0,0,0,2.588,0q3-2.669,6.009-5.34,4.788-4.249,9.567-8.507c.732-.646,1.463-1.3,2.186-1.944a1.826,1.826,0,0,0,0-2.57l-6.009-5.338q-4.788-4.249-9.567-8.508c-.732-.644-1.463-1.3-2.186-1.944a1.87,1.87,0,0,0-2.588,0,1.837,1.837,0,0,0,0,2.571Z" transform="translate(46.197 91.097)" fill="#ec33a2"/>
      <path id="Shape-3" data-name="Shape" d="M72,203.542c.549-1.635,1.088-3.269,1.637-4.913q1.962-5.9,3.924-11.785,2.36-7.109,4.729-14.21l4.088-12.285c.65-1.989,1.381-3.968,1.985-5.984l.027-.082a1.828,1.828,0,0,0-1.28-2.234,1.87,1.87,0,0,0-2.25,1.271c-.549,1.635-1.088,3.269-1.637,4.912q-1.962,5.9-3.924,11.786-2.36,7.109-4.729,14.21l-4.088,12.285c-.649,1.98-1.381,3.959-1.985,5.975l-.027.082a1.828,1.828,0,0,0,1.28,2.234A1.873,1.873,0,0,0,72,203.542Z" transform="translate(37.198 87.927)" fill="#ec33a2"/>
    </g>
  </g>
</svg>
